<?xml version="1.0" encoding="UTF-8" standalone="no"?>
<svg
   xmlns:dc="http://purl.org/dc/elements/1.1/"
   xmlns:cc="http://creativecommons.org/ns#"
   xmlns:rdf="http://www.w3.org/1999/02/22-rdf-syntax-ns#"
   xmlns:svg="http://www.w3.org/2000/svg"
   xmlns="http://www.w3.org/2000/svg"
   version="1.1"
   id="svg4140"
   viewBox="0 0 69.999989 68.409093"
   height="19.306566mm"
   width="19.755552mm">
  <title
     id="title4736">Lateriz project Logo</title>
  <defs
     id="defs4142" />
  <metadata
     id="metadata4145">
    <rdf:RDF>
      <cc:Work
         rdf:about="">
        <dc:format>image/svg+xml</dc:format>
        <dc:type
           rdf:resource="http://purl.org/dc/dcmitype/StillImage" />
        <dc:title>Lateriz project Logo</dc:title>
        <cc:license
           rdf:resource="http://creativecommons.org/licenses/by-nc-sa/3.0/" />
        <dc:creator>
          <cc:Agent>
            <dc:title>Stefano Carlesso</dc:title>
          </cc:Agent>
        </dc:creator>
        <dc:description>to be used as a Favicon and more</dc:description>
      </cc:Work>
      <cc:License
         rdf:about="http://creativecommons.org/licenses/by-nc-sa/3.0/">
        <cc:permits
           rdf:resource="http://creativecommons.org/ns#Reproduction" />
        <cc:permits
           rdf:resource="http://creativecommons.org/ns#Distribution" />
        <cc:requires
           rdf:resource="http://creativecommons.org/ns#Notice" />
        <cc:requires
           rdf:resource="http://creativecommons.org/ns#Attribution" />
        <cc:prohibits
           rdf:resource="http://creativecommons.org/ns#CommercialUse" />
        <cc:permits
           rdf:resource="http://creativecommons.org/ns#DerivativeWorks" />
        <cc:requires
           rdf:resource="http://creativecommons.org/ns#ShareAlike" />
      </cc:License>
    </rdf:RDF>
  </metadata>
  <g
     transform="translate(-145,-803.15766)"
     id="layer1">
    <path
       id="rect5199"
       d="m 180,802.3622 -35.00001,11.39536 0,3.25581 6.36364,0 0,8.13953 2.909,0 0,0.98247 -0.0333,-6.3e-4 0.0333,0.0646 0,0.0365 0.019,0 1.37185,2.6641 -2.62842,38.57854 -1.67138,2.91052 0,1.97321 8.09406,0 0.25479,0 8.09407,0 0,-1.97321 -1.67138,-2.91052 -2.62842,-38.57854 1.37185,-2.6641 0.0189,0 0,-0.0365 0.0333,-0.0646 -0.0333,6.3e-4 0,-0.98247 29.30287,0 0,0.98247 -0.0333,-6.3e-4 0.0333,0.0646 0,0.0365 0.0189,0 1.37185,2.6641 -2.62842,38.57854 -1.67138,2.91052 0,1.97321 8.09407,0 0.25479,0 8.09406,0 0,-1.97321 -1.67139,-2.91052 -2.62841,-38.57854 1.37184,-2.6641 0.019,0 0,-0.0365 0.0332,-0.0646 -0.0332,6.3e-4 0,-0.98247 3.02676,0 0,-8.13953 7.14791,0 0,-3.25581 -35.00001,-11.39536 z"
       style="opacity:1;fill:#442c1c;fill-opacity:1;stroke:none;stroke-width:1.92920983;stroke-linecap:butt;stroke-linejoin:miter;stroke-miterlimit:4;stroke-dasharray:none;stroke-dashoffset:0;stroke-opacity:1" />
  </g>
</svg>
